<?xml version="1.0" encoding="UTF-8"?>
<svg xmlns="http://www.w3.org/2000/svg" xmlns:xlink="http://www.w3.org/1999/xlink" width="37px" height="37px" viewBox="0 0 37 37" version="1.1">
<g id="surface1">
<path style=" stroke:none;fill-rule:nonzero;fill:rgb(20%,80.000001%,60.000002%);fill-opacity:1;" d="M 25.796875 27.539062 L 22.25 27.539062 C 21.652344 27.539062 21.167969 28.023438 21.167969 28.625 C 21.167969 29.222656 21.652344 29.707031 22.25 29.707031 L 25.796875 29.707031 C 26.398438 29.707031 26.882812 29.222656 26.882812 28.625 C 26.882812 28.023438 26.398438 27.539062 25.796875 27.539062 Z M 17.609375 27.539062 L 5.316406 27.539062 C 4.714844 27.539062 4.230469 28.023438 4.230469 28.625 C 4.230469 29.222656 4.714844 29.707031 5.316406 29.707031 L 17.609375 29.707031 C 18.210938 29.707031 18.695312 29.222656 18.695312 28.625 C 18.695312 28.023438 18.210938 27.539062 17.609375 27.539062 Z M 17.609375 27.539062 "/>
<path style=" stroke:none;fill-rule:nonzero;fill:rgb(100%,72.156864%,60.392159%);fill-opacity:1;" d="M 30.289062 4.699219 L 32.65625 7.066406 L 30.5625 9.160156 L 28.191406 6.792969 Z M 30.289062 4.699219 "/>
<path style=" stroke:none;fill-rule:nonzero;fill:rgb(27.058825%,28.235295%,29.803923%);fill-opacity:1;" d="M 26.871094 34.539062 L 7.074219 34.539062 C 5.132812 34.539062 3.554688 32.960938 3.554688 31.019531 L 3.554688 6.316406 C 3.554688 4.375 5.132812 2.796875 7.074219 2.796875 L 22.222656 2.796875 C 22.820312 2.796875 23.304688 3.28125 23.304688 3.878906 C 23.304688 4.480469 22.820312 4.964844 22.222656 4.964844 L 7.074219 4.964844 C 6.332031 4.964844 5.722656 5.570312 5.722656 6.316406 L 5.722656 31.019531 C 5.722656 31.765625 6.332031 32.371094 7.074219 32.371094 L 26.871094 32.371094 C 27.617188 32.371094 28.222656 31.765625 28.222656 31.019531 L 28.222656 16.746094 C 28.222656 16.148438 28.707031 15.664062 29.308594 15.664062 C 29.90625 15.664062 30.390625 16.148438 30.390625 16.746094 L 30.390625 31.023438 C 30.390625 32.960938 28.8125 34.539062 26.871094 34.539062 Z M 26.871094 34.539062 "/>
<path style=" stroke:none;fill-rule:nonzero;fill:rgb(27.058825%,28.235295%,29.803923%);fill-opacity:1;" d="M 32.796875 4.410156 L 31.382812 2.996094 C 30.515625 2.128906 29.027344 2.203125 28.066406 3.164062 L 15.15625 16.078125 L 12.539062 23.253906 L 19.714844 20.640625 L 32.628906 7.726562 C 33.066406 7.289062 33.335938 6.722656 33.390625 6.136719 C 33.457031 5.480469 33.234375 4.851562 32.796875 4.410156 Z M 18.523438 18.765625 L 16.167969 19.621094 L 17.027344 17.269531 L 26.589844 7.703125 L 28.066406 9.210938 Z M 31.097656 6.191406 L 29.605469 7.683594 L 28.125 6.179688 L 29.605469 4.699219 C 29.714844 4.589844 29.828125 4.558594 29.878906 4.558594 L 31.238281 5.917969 C 31.234375 5.964844 31.203125 6.082031 31.097656 6.191406 Z M 31.097656 6.191406 "/>
</g>
</svg>
